<svg width="96" height="91" viewBox="0 0 96 91" fill="none" xmlns="http://www.w3.org/2000/svg">
<ellipse cx="47.6583" cy="45.5772" rx="47.3502" ry="45.1759" fill="#F9B300"/>
<path d="M56.1649 61.7115V58.1261C56.1649 56.2243 55.3874 54.4004 54.0035 53.0556C52.6197 51.7108 50.7427 50.9553 48.7856 50.9553H35.8719C33.9148 50.9553 32.0379 51.7108 30.654 53.0556C29.2701 54.4004 28.4927 56.2243 28.4927 58.1261V61.7115M58.0097 43.7845L61.6993 47.3699L69.0786 40.1991M49.708 36.6138C49.708 40.5741 46.4042 43.7845 42.3288 43.7845C38.2533 43.7845 34.9495 40.5741 34.9495 36.6138C34.9495 32.6535 38.2533 29.443 42.3288 29.443C46.4042 29.443 49.708 32.6535 49.708 36.6138Z" stroke="white" stroke-width="3.22685" stroke-linecap="round" stroke-linejoin="round"/>
</svg>
