<svg width="21" height="19" viewBox="0 0 21 19" fill="none" xmlns="http://www.w3.org/2000/svg">
<path d="M1.81866 16.0602C-0.0109888 12.8429 1.23405 7.79684 5.01911 4.02143C9.31744 -0.264162 15.2608 -1.28587 18.2953 1.73945C18.2989 1.74341 18.3018 1.7479 18.3067 1.75192C17.6994 3.51381 15.7654 7.26265 9.96833 9.28945C4.6579 11.1471 2.6094 14.1005 1.81866 16.0602ZM19.1488 2.84081C18.6888 3.91077 17.8883 5.30904 16.509 6.68435C15.1225 8.06746 13.1519 9.42587 10.3607 10.4022C4.69577 12.3831 3.11296 15.6259 2.67134 17.1974C2.6922 17.2184 2.71014 17.2401 2.73042 17.2605C5.76461 20.2859 11.7082 19.2643 16.0063 14.978C19.8307 11.1643 21.0607 6.05278 19.1488 2.84081Z" fill="#505050"/>
</svg>
