<svg width="96" height="91" viewBox="0 0 96 91" fill="none" xmlns="http://www.w3.org/2000/svg">
<ellipse cx="47.6583" cy="45.3557" rx="47.3502" ry="45.1759" fill="#F9B300"/>
<path d="M58.5026 40.5154H60.1669C61.9324 40.5154 63.6256 41.1953 64.874 42.4056C66.1224 43.6159 66.8238 45.2575 66.8238 46.9691C66.8238 48.6807 66.1224 50.3222 64.874 51.5325C63.6256 52.7428 61.9324 53.4228 60.1669 53.4228H58.5026M58.5026 40.5154H31.8748V55.0362C31.8748 56.7478 32.5762 58.3894 33.8246 59.5997C35.073 60.81 36.7663 61.4899 38.5318 61.4899H51.8457C53.6112 61.4899 55.3044 60.81 56.5528 59.5997C57.8013 58.3894 58.5026 56.7478 58.5026 55.0362V40.5154ZM38.5318 29.2214V34.0617M45.1887 29.2214V34.0617M51.8457 29.2214V34.0617" stroke="white" stroke-width="3.22685" stroke-linecap="round" stroke-linejoin="round"/>
</svg>
