<svg width="765" height="1577" viewBox="0 0 765 1577" fill="none" xmlns="http://www.w3.org/2000/svg">
<path fill-rule="evenodd" clip-rule="evenodd" d="M910.875 -126.8C1042.43 -92.2874 1192.63 -152.246 1302.81 -59.8734C1428.72 45.6905 1550.81 205.366 1552.33 410.982C1553.84 615.048 1396.06 769.647 1310.31 952.583C1226.94 1130.43 1191.52 1354.09 1057.52 1466.55C918.227 1583.45 744.95 1598.72 595.849 1552.18C454.021 1507.92 366.099 1351.54 265.93 1219.5C161.457 1081.78 -8.41717 973.849 1.00224 768.057C10.5246 560.014 220.643 456.043 309.303 271.896C393.086 97.8776 361.916 -178.132 500.907 -270.249C639.969 -362.414 767.887 -164.312 910.875 -126.8Z" fill="#F9B300"/>
</svg>
