<svg width="2828" height="1292" viewBox="0 0 2828 1292" fill="none" xmlns="http://www.w3.org/2000/svg">
<path fill-rule="evenodd" clip-rule="evenodd" d="M0 1175.65L117.833 1143.38C235.667 1111.11 471.333 1046.57 707 1020.76C942.667 994.944 1178.33 1007.85 1414 1040.12C1649.67 1072.39 1885.33 1124.02 2121 1169.19C2356.67 1214.37 2592.33 1253.09 2710.17 1272.45L2828 1291.81V982.037H2710.17C2592.33 982.037 2356.67 982.037 2121 982.037C1885.33 982.037 1649.67 982.037 1414 982.037C1178.33 982.037 942.667 982.037 707 982.037C471.333 982.037 235.667 982.037 117.833 982.037H0V1175.65Z" fill="#FFF7E1"/>
<rect x="512.42" y="309.777" width="2057.22" height="685.167" fill="#FFF7E1"/>
<path fill-rule="evenodd" clip-rule="evenodd" d="M0 116.166L117.833 148.435C235.667 180.703 471.333 245.24 707 271.055C942.667 296.87 1178.33 283.962 1414 251.694C1649.67 219.426 1885.33 167.796 2121 122.62C2356.67 77.4443 2592.33 38.7222 2710.17 19.3611L2828 0V309.777H2710.17C2592.33 309.777 2356.67 309.777 2121 309.777C1885.33 309.777 1649.67 309.777 1414 309.777C1178.33 309.777 942.667 309.777 707 309.777C471.333 309.777 235.667 309.777 117.833 309.777H0V116.166Z" fill="#FFF7E1"/>
<rect y="310" width="574" height="672" fill="#FFF7E1"/>
<rect x="2254" y="310" width="574" height="672" fill="#FFF7E1"/>
</svg>
